<?xml version="1.0" encoding="UTF-8"?>
<svg id="Capa_2" data-name="Capa 2" xmlns="http://www.w3.org/2000/svg" viewBox="0 0 296 47.34">
  <defs>
    <style>
      .cls-1 {
        fill: #c8ff00;
      }

      .cls-1, .cls-2, .cls-3, .cls-4, .cls-5 {
        stroke-width: 0px;
      }

      .cls-2 {
        fill: #dfe1e8;
      }

      .cls-3 {
        fill: #4a662e;
      }

      .cls-4 {
        fill: #89b317;
      }

      .cls-5 {
        fill: #0b1a45;
      }
    </style>
  </defs>
  <g id="Capa_1-2" data-name="Capa 1">
    <g>
      <g>
        <g>
          <path class="cls-5" d="m85.16,21.37c-2.43-1.1-5.24-1.78-8.44-2.06l-3.35-.3c-1.99-.16-3.43-.7-4.31-1.62-.88-.92-1.32-1.99-1.32-3.23,0-.96.24-1.84.72-2.66.48-.82,1.21-1.47,2.18-1.94.98-.48,2.18-.72,3.62-.72,1.52,0,2.78.28,3.8.84,1.02.56,1.78,1.29,2.3,2.18.44.75.69,1.57.76,2.45.02.29.27.51.56.51h8.45c.32,0,.58-.26.57-.58-.08-2.63-.74-4.94-1.96-6.93-1.32-2.13-3.2-3.79-5.65-4.97-2.45-1.18-5.39-1.76-8.82-1.76s-6.1.55-8.49,1.64c-2.39,1.1-4.26,2.66-5.59,4.7-1.34,2.03-2,4.45-2,7.24,0,3.87,1.3,6.98,3.89,9.33,2.59,2.35,6.06,3.71,10.41,4.07l3.29.3c2.67.24,4.61.77,5.8,1.59,1.2.82,1.79,1.92,1.79,3.32,0,1.12-.32,2.1-.96,2.96-.64.86-1.58,1.53-2.81,2-1.24.48-2.77.72-4.61.72-2.03,0-3.69-.29-4.97-.87-1.28-.58-2.22-1.35-2.84-2.3-.52-.81-.82-1.68-.91-2.6-.03-.29-.27-.51-.56-.51h-8.39c-.32,0-.58.26-.57.58.09,2.59.78,4.9,2.08,6.93,1.4,2.17,3.45,3.89,6.16,5.14,2.71,1.26,6.04,1.88,9.99,1.88,3.71,0,6.9-.58,9.57-1.73,2.67-1.16,4.74-2.78,6.19-4.88,1.46-2.09,2.18-4.54,2.18-7.33s-.69-5.01-2.06-6.91c-1.38-1.89-3.28-3.39-5.71-4.49Z"/>
          <path class="cls-5" d="m107.92,3.93h-7.78c-.31,0-.57.25-.57.57v7.72c0,.31-.25.57-.57.57h-3.83c-.31,0-.57.25-.57.57v5.86c0,.31.25.57.57.57h3.83c.31,0,.57.25.57.57v12.41c0,3.31.47,5.93,1.41,7.87.94,1.93,2.42,3.31,4.46,4.13,2.03.82,4.71,1.23,8.02,1.23h4.04c.31,0,.57-.25.57-.57v-6.94c0-.31-.25-.57-.57-.57h-4.28c-1.52,0-2.68-.41-3.5-1.23-.82-.82-1.23-2-1.23-3.56v-12.77c0-.31.25-.57.57-.57h8.43c.31,0,.57-.25.57-.57v-5.86c0-.31-.25-.57-.57-.57h-8.43c-.31,0-.57-.25-.57-.57v-7.72c0-.31-.25-.57-.57-.57Z"/>
          <path class="cls-5" d="m153,16.67c-1.56-1.56-3.44-2.78-5.65-3.68-2.21-.9-4.74-1.35-7.57-1.35s-5.24.45-7.48,1.35c-2.23.9-4.14,2.12-5.71,3.68-1.58,1.56-2.77,3.36-3.59,5.41-.82,2.05-1.23,4.22-1.23,6.49v1.38c0,2.23.4,4.36,1.2,6.37.8,2.01,1.96,3.8,3.5,5.35,1.53,1.56,3.42,2.78,5.65,3.68,2.23.9,4.79,1.35,7.66,1.35s5.48-.45,7.72-1.35c2.23-.9,4.12-2.12,5.65-3.68,1.53-1.56,2.7-3.34,3.5-5.35.8-2.01,1.2-4.14,1.2-6.37v-1.38c0-2.27-.42-4.44-1.26-6.49-.84-2.05-2.03-3.86-3.59-5.41Zm-5.71,17.41c-.66,1.44-1.61,2.55-2.84,3.35-1.24.8-2.79,1.2-4.67,1.2s-3.33-.4-4.61-1.2c-1.28-.8-2.23-1.91-2.87-3.35-.64-1.44-.96-3.03-.96-4.79,0-1.87.33-3.52.99-4.94.66-1.42,1.62-2.54,2.9-3.38,1.28-.84,2.79-1.26,4.55-1.26s3.32.42,4.58,1.26c1.26.84,2.22,1.96,2.9,3.38.68,1.42,1.02,3.06,1.02,4.94,0,1.76-.33,3.35-.99,4.79Z"/>
          <path class="cls-5" d="m184.08,35.91c-.54.82-1.26,1.46-2.15,1.91-.9.46-1.98.69-3.26.69-1.71,0-3.1-.39-4.16-1.17-1.06-.78-1.82-1.87-2.3-3.29-.48-1.42-.72-3-.72-4.76,0-1.91.26-3.57.78-4.97.52-1.4,1.31-2.49,2.36-3.29,1.06-.8,2.38-1.2,3.98-1.2,1.91,0,3.38.51,4.4,1.53.9.9,1.47,1.99,1.7,3.26.05.28.28.48.56.48h8.29c.33,0,.6-.28.57-.62-.23-2.38-.98-4.51-2.23-6.38-1.36-2.03-3.17-3.62-5.44-4.76-2.27-1.14-4.89-1.71-7.84-1.71-2.71,0-5.12.46-7.21,1.38-2.09.92-3.84,2.17-5.23,3.77-1.4,1.6-2.45,3.42-3.17,5.47-.72,2.05-1.08,4.2-1.08,6.43v1.14c0,2.15.34,4.24,1.02,6.25.68,2.01,1.71,3.82,3.11,5.41,1.4,1.6,3.14,2.86,5.23,3.8,2.09.94,4.56,1.41,7.39,1.41s5.58-.57,7.9-1.7c2.31-1.14,4.17-2.73,5.56-4.79,1.29-1.9,2.04-4.08,2.24-6.54.03-.33-.24-.61-.57-.61h-8.23c-.27,0-.51.19-.56.45-.15.89-.46,1.69-.92,2.39Z"/>
          <path class="cls-5" d="m220.89,26.43l9.83-12.73c.29-.37.02-.92-.45-.92h-8.61c-.18,0-.34.08-.45.22l-10.71,14.03c-.33.43-1.02.2-1.02-.35V2.47c0-.31-.25-.57-.57-.57h-8.43c-.31,0-.57.25-.57.57v42.53c0,.31.25.57.57.57h8.43c.31,0,.57-.25.57-.57v-14.18c0-.31.25-.57.57-.57h2.3c.19,0,.37.09.47.25l10.01,14.81c.11.16.28.25.47.25h9.37c.46,0,.73-.52.47-.89l-12.26-17.57c-.14-.2-.14-.48.02-.67Z"/>
        </g>
        <g>
          <g>
            <rect class="cls-1" x="239.15" y="3.69" width="9.85" height="42.12" rx=".97" ry=".97"/>
            <path class="cls-2" d="m248.03,3.94c.4,0,.72.32.72.72v40.18c0,.4-.32.72-.72.72h-7.91c-.4,0-.72-.32-.72-.72V4.66c0-.4.32-.72.72-.72h7.91m0-.5h-7.91c-.67,0-1.22.55-1.22,1.22v40.18c0,.67.55,1.22,1.22,1.22h7.91c.67,0,1.22-.55,1.22-1.22V4.66c0-.67-.55-1.22-1.22-1.22h0Z"/>
          </g>
          <g>
            <path class="cls-1" d="m286.62,45.81c-.42,0-.79-.27-.92-.67l-3.05-9.33c-.06-.19-.24-.32-.45-.32h-16.34c-.21,0-.39.13-.45.33l-2.98,9.32c-.13.4-.5.68-.92.68h-7.83c-.32,0-.6-.15-.79-.4-.18-.26-.23-.57-.13-.87l13.27-40.18c.13-.4.5-.67.92-.67h14.07c.42,0,.78.26.92.66l13.76,40.18c.1.3.06.62-.13.88-.18.26-.47.41-.79.41h-8.16Zm-13.21-33.98c-.21,0-.39.13-.45.33l-4.62,14.47c-.05.14-.02.3.07.42.09.12.23.19.38.19h10.39c.15,0,.29-.07.38-.19.09-.12.11-.28.07-.42l-4.74-14.47c-.06-.19-.24-.32-.45-.32h-1.04Z"/>
            <path class="cls-2" d="m281.02,3.94c.31,0,.58.2.68.49l13.76,40.18c.16.47-.19.95-.68.95h-8.16c-.31,0-.59-.2-.68-.5l-3.05-9.33c-.1-.3-.37-.5-.68-.5h-16.34c-.31,0-.59.2-.69.5l-2.98,9.32c-.1.3-.37.5-.69.5h-7.83c-.49,0-.84-.48-.68-.95l13.27-40.18c.1-.3.37-.49.68-.49h14.07m-12.23,23.55h10.39c.49,0,.84-.48.69-.94l-4.74-14.47c-.1-.3-.37-.5-.68-.5h-1.04c-.31,0-.59.2-.69.5l-4.62,14.47c-.15.46.2.94.69.94m12.23-24.05h-14.07c-.53,0-.99.34-1.16.84l-13.27,40.18c-.12.37-.06.78.17,1.1.23.32.6.51.99.51h7.83c.53,0,1-.34,1.16-.85l2.98-9.32c.03-.09.11-.15.21-.15h16.34c.1,0,.18.06.21.15l3.05,9.33c.16.5.63.84,1.16.84h8.16c.39,0,.76-.19.99-.51.23-.32.29-.73.16-1.11l-13.76-40.18c-.17-.49-.63-.83-1.15-.83h0Zm-12.23,23.55c-.1,0-.15-.06-.18-.09-.02-.03-.06-.1-.03-.2l4.62-14.47c.03-.09.11-.15.21-.15h1.04c.1,0,.18.06.21.15l4.74,14.47c.03.09,0,.16-.03.2-.02.03-.08.09-.18.09h-10.39Z"/>
          </g>
        </g>
      </g>
      <g>
        <g>
          <path class="cls-1" d="m32.9,47.09c-.34,0-.69-.03-1.03-.1-1.47-.28-2.73-1.1-3.56-2.33-.82-1.21-1.12-2.66-.85-4.08l6.94-35.9c.5-2.57,2.78-4.44,5.43-4.44.34,0,.69.03,1.03.1,1.47.28,2.73,1.1,3.56,2.33.82,1.21,1.12,2.66.85,4.08l-6.94,35.9c-.5,2.57-2.78,4.44-5.43,4.44Z"/>
          <path class="cls-2" d="m39.83.5c.32,0,.65.03.98.09h.02c2.85.54,4.74,3.29,4.19,6.11l-6.94,35.9c-.48,2.49-2.71,4.24-5.19,4.24-.32,0-.65-.03-.98-.09h-.02c-2.85-.54-4.74-3.29-4.19-6.11l6.94-35.9c.48-2.49,2.71-4.24,5.19-4.24m0-.5h0c-2.77,0-5.16,1.95-5.68,4.65l-6.94,35.9c-.29,1.49.03,3,.89,4.27.87,1.28,2.19,2.14,3.71,2.43.37.07.73.1,1.09.1,2.77,0,5.16-1.95,5.68-4.65l6.94-35.9c.29-1.49-.03-3-.89-4.27-.87-1.28-2.19-2.14-3.71-2.43-.37-.07-.73-.1-1.09-.1h0Z"/>
        </g>
        <g>
          <path class="cls-4" d="m19.35,47.09c-.34,0-.69-.03-1.03-.1-1.47-.28-2.73-1.1-3.56-2.33-.82-1.21-1.12-2.66-.85-4.08L20.32,7.53c.5-2.57,2.78-4.44,5.43-4.44.34,0,.69.03,1.03.1,1.47.28,2.73,1.1,3.56,2.33.82,1.21,1.12,2.66.85,4.08l-6.41,33.06c-.5,2.57-2.78,4.44-5.43,4.44Z"/>
          <path class="cls-2" d="m25.75,3.34c.32,0,.65.03.98.09h.02c2.85.54,4.74,3.29,4.19,6.11l-6.41,33.06c-.48,2.49-2.71,4.24-5.19,4.24-.32,0-.65-.03-.98-.09h-.02c-2.85-.54-4.74-3.29-4.19-6.11L20.56,7.58c.48-2.49,2.71-4.24,5.19-4.24m0-.5h0c-2.77,0-5.16,1.95-5.68,4.65l-6.41,33.06c-.29,1.49.03,3,.89,4.27.87,1.28,2.19,2.14,3.71,2.43.37.07.73.1,1.09.1,2.77,0,5.16-1.95,5.68-4.65l6.41-33.06c.29-1.49-.03-3-.89-4.27-.87-1.28-2.19-2.14-3.71-2.43-.37-.07-.73-.1-1.09-.1h0Z"/>
        </g>
        <g>
          <path class="cls-3" d="m5.79,47.09c-.34,0-.69-.03-1.03-.1-1.47-.28-2.73-1.1-3.56-2.33-.82-1.21-1.12-2.66-.85-4.08L6.24,10.37c.5-2.57,2.78-4.44,5.43-4.44.34,0,.69.03,1.03.1,1.47.28,2.73,1.1,3.56,2.33.82,1.21,1.12,2.66.85,4.08l-5.89,30.22c-.5,2.57-2.78,4.44-5.43,4.44Z"/>
          <path class="cls-2" d="m11.67,6.18c.32,0,.65.03.98.09h.02c2.85.54,4.74,3.29,4.19,6.11l-5.89,30.22c-.48,2.49-2.71,4.24-5.19,4.24-.32,0-.65-.03-.98-.09h-.02c-2.85-.54-4.74-3.29-4.19-6.11L6.49,10.42c.48-2.49,2.71-4.24,5.19-4.24m0-.5h0c-2.77,0-5.16,1.95-5.68,4.65L.1,40.54c-.29,1.49.03,3,.89,4.27.87,1.28,2.19,2.14,3.71,2.43.37.07.73.1,1.09.1,2.77,0,5.16-1.95,5.68-4.65l5.89-30.22c.29-1.49-.03-3-.89-4.27-.87-1.28-2.19-2.14-3.71-2.43-.37-.07-.73-.1-1.09-.1h0Z"/>
        </g>
      </g>
    </g>
  </g>
</svg>