<?xml version="1.0" encoding="UTF-8"?>
<svg id="Capa_2" data-name="Capa 2" xmlns="http://www.w3.org/2000/svg" viewBox="0 0 55 57.13">
  <defs>
    <style>
      .cls-1 {
        fill: #c8ff00;
      }

      .cls-1, .cls-2, .cls-3 {
        stroke-width: 0px;
      }

      .cls-2 {
        fill: #4a662e;
      }

      .cls-3 {
        fill: #89b317;
      }
    </style>
  </defs>
  <g id="Capa_1-2" data-name="Capa 1">
    <g>
      <path class="cls-1" d="m38.73,57.02h-.02c-3.52-.67-5.84-4.06-5.17-7.54L42.09,5.23c.67-3.47,4.09-5.78,7.6-5.11h.02c3.52.67,5.84,4.06,5.17,7.54l-8.55,44.25c-.67,3.47-4.09,5.78-7.6,5.11Z"/>
      <path class="cls-3" d="m22.02,57.02h-.02c-3.52-.67-5.84-4.06-5.17-7.54l7.9-40.75c.67-3.47,4.09-5.78,7.6-5.11h.02c3.52.67,5.84,4.06,5.17,7.54l-7.9,40.75c-.67,3.47-4.09,5.78-7.6,5.11Z"/>
      <path class="cls-2" d="m5.31,57.02h-.02c-3.52-.67-5.84-4.06-5.17-7.54L7.38,12.22c.67-3.47,4.09-5.78,7.6-5.11h.02c3.52.67,5.84,4.06,5.17,7.54l-7.26,37.26c-.67,3.47-4.09,5.78-7.6,5.11Z"/>
    </g>
  </g>
</svg>